<svg xmlns="http://www.w3.org/2000/svg" width="16" height="24" viewBox="0 0 16 24" shape-rendering="crispEdges">
 <path fill="#172b34" d="M7 2h2v2h2v2h2v4h-2v2H9v5H7v-5H5v-2H3V6h2V4h2z"/>
 <path fill="#426774" d="M7 3h2v2h2v2h1v2h-1v2H9v3H7v-3H5V9H4V7h1V5h2z"/>
 <path fill="#75b6c1" d="M7 4h2v2h2v3H9v3H7V9H5V6h2z"/>
 <path fill="#d7e9d8" d="M7 5h2v2h1v2H9v1H7V9H6V7h1z"/>
 <path fill="#fff1c1" d="M7 6h2v3H7z"/>
 <path fill="#68909a" d="M7 13h2v3H7z"/>
 <rect x="3" y="8" width="2" height="1" fill="#b9d5ce"/><rect x="11" y="7" width="2" height="1" fill="#b9d5ce"/>
 </svg>