<svg xmlns="http://www.w3.org/2000/svg" width="556" height="18" viewBox="0 0 556 18" shape-rendering="crispEdges">
  <rect width="556" height="18" fill="#081116"/>
  <path d="M0 0h556v1H0zM0 17h556v1H0z" fill="#243b43"/>
  <path d="M16 4h1v10h-1zM80 6h1v6h-1zM144 6h1v6h-1zM208 6h1v6h-1zM272 4h1v10h-1zM336 6h1v6h-1zM400 6h1v6h-1zM464 6h1v6h-1zM539 4h1v10h-1z" fill="#36525a"/>
  <path d="M17 11h37l18-4h70l16 3h54l22-5h73l20 6h58l20-4h64l19 3h50" fill="none" stroke="#72c7c0" stroke-width="1"/>
  <path d="M17 9v5h5M534 7h5v5" fill="none" stroke="#d4b54f" stroke-width="1"/>
  <rect x="269" y="6" width="7" height="7" fill="#081116" stroke="#d4b54f"/>
  <rect x="271" y="8" width="3" height="3" fill="#e8cb64"/>
  <path d="M49 14h18M486 4h30" stroke="#536d72"/>
</svg>
